<?xml version="1.0" encoding="UTF-8"?>
<svg width="1600px" height="400px" viewBox="0 0 1600 400" version="1.1" xmlns="http://www.w3.org/2000/svg" xmlns:xlink="http://www.w3.org/1999/xlink">
    <defs>
        <linearGradient x1="50%" y1="0%" x2="50%" y2="100%" id="linearGradient-1">
            <stop stop-color="#E33059" offset="0%"></stop>
            <stop stop-color="#54000E" offset="100%"></stop>
        </linearGradient>
        <linearGradient x1="50%" y1="0%" x2="50%" y2="100%" id="linearGradient-2">
            <stop stop-color="#F93260" offset="0%"></stop>
            <stop stop-color="#7C0021" offset="100%"></stop>
        </linearGradient>
        <linearGradient x1="50%" y1="0%" x2="50%" y2="100%" id="linearGradient-3">
            <stop stop-color="#EB2855" offset="0%"></stop>
            <stop stop-color="#B5002A" offset="100%"></stop>
        </linearGradient>
        <linearGradient x1="50%" y1="0%" x2="50%" y2="100%" id="linearGradient-4">
            <stop stop-color="#FF5872" offset="0%"></stop>
            <stop stop-color="#FF4764" offset="100%"></stop>
        </linearGradient>
        <linearGradient x1="50%" y1="0%" x2="50%" y2="100%" id="linearGradient-5">
            <stop stop-color="#D61142" offset="0%"></stop>
            <stop stop-color="#800024" offset="100%"></stop>
        </linearGradient>
        <linearGradient x1="50%" y1="0%" x2="50%" y2="97.5348395%" id="linearGradient-6">
            <stop stop-color="#FF194F" offset="0%"></stop>
            <stop stop-color="#BD001F" offset="100%"></stop>
        </linearGradient>
        <linearGradient x1="50%" y1="0%" x2="50%" y2="100%" id="linearGradient-7">
            <stop stop-color="#B0E026" offset="0%"></stop>
            <stop stop-color="#609F06" offset="100%"></stop>
        </linearGradient>
        <linearGradient x1="50%" y1="0%" x2="50%" y2="99.2477829%" id="linearGradient-8">
            <stop stop-color="#9DCD23" offset="0%"></stop>
            <stop stop-color="#449108" offset="100%"></stop>
        </linearGradient>
        <linearGradient x1="50%" y1="0%" x2="50%" y2="99.6067356%" id="linearGradient-9">
            <stop stop-color="#FE3D63" offset="0%"></stop>
            <stop stop-color="#F40D46" offset="100%"></stop>
        </linearGradient>
        <linearGradient x1="50%" y1="100%" x2="50%" y2="0%" id="linearGradient-10">
            <stop stop-color="#D50043" offset="0%"></stop>
            <stop stop-color="#FF4D5B" offset="100%"></stop>
        </linearGradient>
    </defs>
    <g id="banner" stroke="none" stroke-width="1" fill="none" fill-rule="evenodd">
        <g id="rosy-icon" transform="translate(360.000000, 30.000000)">
            <polygon id="Path-5-Copy-7" fill="url(#linearGradient-1)" points="280 0 120 140 280 140"></polygon>
            <polygon id="Path-5-Copy-8" fill="url(#linearGradient-2)" points="120 0 120 140 280 140"></polygon>
            <polygon id="Path-5-Copy" fill="url(#linearGradient-3)" points="320 40 120 140 280 160 400 140"></polygon>
            <polygon id="Path-5-Copy-6" fill="url(#linearGradient-4)" points="80 40 0 140 120 160 280 140"></polygon>
            <polygon id="Path-3" fill="url(#linearGradient-5)" points="200 340 0 140 400 140"></polygon>
            <polygon id="Path-4" fill="url(#linearGradient-6)" points="120 140 200 340 280 140"></polygon>
            <g id="Group" stroke-width="1" transform="translate(40.000000, 220.000000)">
                <polygon id="Path-4-Copy" fill="url(#linearGradient-7)" points="120 40 160 120 200 40"></polygon>
                <path d="M160,120 L192,40 L320,0 L160,120 Z M160,120 L0,0 L128,40 L160,120 Z" id="Combined-Shape" fill="url(#linearGradient-8)"></path>
            </g>
            <path d="M80,40 L120,140 L0,140 L80,40 Z M320,40 L400,140 L280,140 L320,40 Z" id="Combined-Shape" fill="url(#linearGradient-9)"></path>
        </g>
        <g id="rosy-text-red" transform="translate(794.000000, 109.000000)" fill="url(#linearGradient-10)">
            <path d="M61.0714286,125.598157 L61.0714286,151.162162 C61.0714286,155.45045 57.8571429,157.594595 51.4285714,157.594595 C45,157.594595 41.7857143,155.45045 41.7857143,151.162162 L41.7857143,67.5405405 C41.7857143,63.2522523 45,61.1081081 51.4285714,61.1081081 C57.8571429,61.1081081 61.0714286,63.2522523 61.0714286,67.5405405 L61.0714286,102.918919 L70.080927,102.918919 C91.616535,102.918919 109.074595,85.6395303 109.074595,64.3243243 C109.074595,43.0091183 91.616535,25.7297297 70.080927,25.7297297 C51.1588322,25.7297297 37.4313851,32.3274159 24.6070123,49.6193694 C23.0108862,51.7715323 19.544212,56.6417008 11.6042255,51.4680137 C3.66423898,46.2943265 6.76641445,41.1001575 8.53245707,38.7013583 C25.1591993,16.1174092 44.6751982,6.43243243 70.080927,6.43243243 C102.384339,6.43243243 128.571429,32.3515153 128.571429,64.3243243 C128.571429,90.2660773 111.331944,112.222541 87.5735852,119.582823 C90.6135795,122.260328 93.4763023,125.239339 96.1566229,128.516732 C103.069959,136.970095 112.14875,139.923152 124.862134,137.321826 C126.075505,137.073554 129.821436,137.310446 131.360767,146.351478 C132.900097,155.392509 129.90417,156.097711 128.003221,156.4596 C108.723329,160.129965 92.5568557,154.902048 80.9603092,140.722236 C75.2995959,133.800533 68.7101831,128.783662 61.0714286,125.598157 Z M183.214286,157.594595 C158.361472,157.594595 138.214286,137.435308 138.214286,112.567568 C138.214286,87.6998272 158.361472,67.5405405 183.214286,67.5405405 C208.067099,67.5405405 228.214286,87.6998272 228.214286,112.567568 C228.214286,137.435308 208.067099,157.594595 183.214286,157.594595 Z M183.214286,138.297297 C197.415894,138.297297 208.928571,126.777705 208.928571,112.567568 C208.928571,98.3574302 197.415894,86.8378378 183.214286,86.8378378 C169.012678,86.8378378 157.5,98.3574302 157.5,112.567568 C157.5,126.777705 169.012678,138.297297 183.214286,138.297297 Z M306.464326,85.2551815 C301.697701,91.1686055 297.701907,90.9270873 295.900938,90.1920466 C290.823055,88.1195782 283.451304,86.8438359 276.504748,86.8378342 C266.985973,86.8296102 262.196692,90.1509427 262.196692,94.8783784 C262.196692,98.3312831 268.230533,101.15981 280.288146,101.961846 C289.325953,102.563015 295.610316,103.755666 301.395136,106.795588 C310.051431,111.34447 315.022595,119.397951 315.022595,130.256757 C315.022595,146.483903 298.241454,157.594595 279.728055,157.594595 C263.516267,157.594595 251.651779,154.965146 240.334667,147.328107 C239.102225,146.496428 237.925509,143.525228 242.688722,136.890992 C247.451936,130.256757 252.125614,132.047826 253.993197,133.081019 C260.949915,136.929646 268.639639,138.297297 279.728055,138.297297 C288.860818,138.297297 295.73688,133.744698 295.73688,130.256757 C295.73688,124.114524 291.847446,122.070627 279.008911,121.216645 C270.751806,120.667407 263.593857,119.258432 257.612805,116.454652 C248.575308,112.21808 242.910978,104.884036 242.910978,94.8783784 C242.910978,77.6635008 257.531692,67.5241374 276.521401,67.5405441 C287.584345,67.5501023 299.087627,69.7345027 307.538347,74.3923758 C309.392762,75.4144936 311.230951,79.3417575 306.464326,85.2551815 Z M392.142857,112.567568 L392.142857,106.135135 L392.142857,73.972973 C392.142857,69.6846847 395.357143,67.5405405 401.785714,67.5405405 C408.214286,67.5405405 411.428571,69.6846847 411.428571,73.972973 L411.428571,112.567568 L411.428571,151.162162 C411.428571,153.304024 411.494488,155.653796 411.428571,157.741399 C419.680508,153.875596 426.147716,149.125857 430.79604,143.400535 C432.431059,141.386688 434.392197,138.143203 443.480526,141.522807 C452.568854,144.90241 449.846532,149.630959 448.760424,151.263553 C440.107437,164.27038 427.441837,172.645844 409.659342,179.155642 C404.317457,212.621453 389.0719,234.783784 367.345262,234.783784 C340.373582,234.783784 326.681148,203.490614 347.85223,182.762504 C354.404826,176.347011 362.637934,172.946669 379.022774,168.314432 C380.36878,167.933896 386.421471,166.248574 388.062152,165.783715 C389.556572,165.360296 390.928996,164.9644 392.221291,164.582603 C392.221291,160.242483 392.148019,156.127834 392.143115,151.63068 C386.515271,155.415535 379.950559,157.594595 372.857143,157.594595 C351.07981,157.594595 334.285714,137.056149 334.285714,112.567568 L334.285714,73.972973 C334.285714,69.6846847 337.5,67.5405405 343.928571,67.5405405 C350.357143,67.5405405 353.571429,69.6846847 353.571429,73.972973 L353.571429,112.567568 C353.571429,127.156863 362.680858,138.297297 372.857143,138.297297 C383.033428,138.297297 392.142857,127.156863 392.142857,112.567568 Z M384.135386,186.902552 C370.893104,190.646341 364.505265,193.284572 361.074369,196.643681 C352.516307,205.02268 357.094781,215.486486 367.345262,215.486486 C376.08213,215.486486 384.398971,204.438215 389.005983,185.540031 C386.952524,186.113758 384.840094,186.703321 384.135386,186.902552 Z" id="Combined-Shape"></path>
        </g>
    </g>
</svg>