<?xml version="1.0" encoding="UTF-8"?>
<svg width="1600px" height="400px" viewBox="0 0 1600 400" version="1.1" xmlns="http://www.w3.org/2000/svg" xmlns:xlink="http://www.w3.org/1999/xlink">
    <defs>
        <linearGradient x1="50%" y1="0%" x2="50%" y2="100%" id="linearGradient-1">
            <stop stop-color="#DE2B45" offset="0%"></stop>
            <stop stop-color="#5C0714" offset="100%"></stop>
        </linearGradient>
        <linearGradient x1="50%" y1="0%" x2="50%" y2="100%" id="linearGradient-2">
            <stop stop-color="#F3284F" offset="0%"></stop>
            <stop stop-color="#87071F" offset="100%"></stop>
        </linearGradient>
        <linearGradient x1="50%" y1="0%" x2="50%" y2="99.0155194%" id="linearGradient-3">
            <stop stop-color="#ED2952" offset="0%"></stop>
            <stop stop-color="#BD092C" offset="100%"></stop>
        </linearGradient>
        <linearGradient x1="50%" y1="0%" x2="50%" y2="100%" id="linearGradient-4">
            <stop stop-color="#FF5872" offset="0%"></stop>
            <stop stop-color="#FF4764" offset="100%"></stop>
        </linearGradient>
        <linearGradient x1="50%" y1="0%" x2="50%" y2="100%" id="linearGradient-5">
            <stop stop-color="#D41242" offset="0%"></stop>
            <stop stop-color="#89001A" offset="100%"></stop>
        </linearGradient>
        <linearGradient x1="50%" y1="0%" x2="50%" y2="97.5348395%" id="linearGradient-6">
            <stop stop-color="#FF154C" offset="0%"></stop>
            <stop stop-color="#B1011F" offset="100%"></stop>
        </linearGradient>
        <linearGradient x1="50%" y1="0%" x2="50%" y2="100%" id="linearGradient-7">
            <stop stop-color="#B0E026" offset="0%"></stop>
            <stop stop-color="#609F06" offset="100%"></stop>
        </linearGradient>
        <linearGradient x1="50%" y1="0%" x2="50%" y2="99.2477829%" id="linearGradient-8">
            <stop stop-color="#9DCD23" offset="0%"></stop>
            <stop stop-color="#449108" offset="100%"></stop>
        </linearGradient>
        <linearGradient x1="50%" y1="0%" x2="50%" y2="99.6067356%" id="linearGradient-9">
            <stop stop-color="#FE3D63" offset="0%"></stop>
            <stop stop-color="#F40D46" offset="100%"></stop>
        </linearGradient>
        <linearGradient x1="50%" y1="0%" x2="50%" y2="100%" id="linearGradient-10">
            <stop stop-color="#FF375E" offset="0%"></stop>
            <stop stop-color="#E8043C" offset="100%"></stop>
        </linearGradient>
    </defs>
    <g id="banner" stroke="none" stroke-width="1" fill="none" fill-rule="evenodd">
        <g id="rosy-icon" transform="translate(320.000000, 30.000000)">
            <polygon id="Path-5-Copy-7" fill="url(#linearGradient-1)" points="280 0 120 140 280 140"></polygon>
            <polygon id="Path-5-Copy-8" fill="url(#linearGradient-2)" points="120 0 120 140 280 140"></polygon>
            <polygon id="Path-5-Copy" fill="url(#linearGradient-3)" points="320 40 120 140 280 160 400 140"></polygon>
            <polygon id="Path-5-Copy-6" fill="url(#linearGradient-4)" points="80 40 0 140 120 160 280 140"></polygon>
            <polygon id="Path-3" fill="url(#linearGradient-5)" points="200 340 0 140 400 140"></polygon>
            <polygon id="Path-4" fill="url(#linearGradient-6)" points="120 140 200 340 280 140"></polygon>
            <g id="Group" stroke-width="1" transform="translate(40.000000, 220.000000)">
                <polygon id="Path-4-Copy" fill="url(#linearGradient-7)" points="120 40 160 120 200 40"></polygon>
                <path d="M160,120 L192,40 L320,0 L160,120 Z M160,120 L0,0 L128,40 L160,120 Z" id="Combined-Shape" fill="url(#linearGradient-8)"></path>
            </g>
            <path d="M80,40 L120,140 L0,140 L80,40 Z M320,40 L400,140 L280,140 L320,40 Z" id="Combined-Shape" fill="url(#linearGradient-9)"></path>
        </g>
        <path d="M1168.91127,216.268282 C1164.03933,221.521636 1158.38649,225.825213 1151.87945,229.362712 C1155.12609,253.227119 1129.42349,267.6 1108.59085,267.6 C1091.27542,267.6 1084.51157,253.227119 1091.54597,242.379661 C1095.60427,235.6 1102.63867,233.159322 1110.21418,232.345763 C1116.16636,231.532203 1122.38909,231.532203 1127.52961,230.447458 C1125.88211,219.43838 1116.80324,211.284651 1111.10333,200.694469 C1102.42989,215.409945 1090.50351,227.685037 1076.0494,236.792736 C1066.06369,253.296004 1051.75983,265.2 1035.83667,265.2 C1016.40502,265.2 1004.8,245.720734 1004.8,231.652374 C1004.8,204.868383 1018.56409,169.697485 1041.23435,157.793489 C1047.1718,154.81749 1054.99844,156.981853 1060.39612,160.769488 C1077.12894,160.769488 1091.16291,172.402939 1091.16291,184.577481 C1091.16291,196.752022 1088.46407,210.279291 1083.33627,222.453832 C1093.0352,213.835991 1101.47386,203.413355 1107.47587,191.62815 C1106.81058,189.028705 1106.42642,186.256472 1106.42642,183.261017 C1106.42642,165.905085 1121.30688,155.6 1136.18733,155.6 C1145.92727,155.6 1158.37274,169.430508 1158.37274,179.19322 C1158.37274,184.888136 1152.42056,194.922034 1148.6328,194.922034 C1142.68062,194.922034 1134.29346,190.854237 1134.29346,188.142373 C1134.29346,187.6 1134.56401,187.328814 1134.83456,187.057627 C1139.43398,187.057627 1143.22173,179.735593 1143.22173,174.583051 C1143.22173,171.328814 1141.86896,168.616949 1138.89287,168.616949 C1132.12903,168.616949 1129.15294,180.277966 1129.15294,185.159322 C1129.15294,199.532203 1143.76284,209.837288 1149.44447,222.040678 C1160.92845,215.552751 1168.70619,206.31902 1174.14565,194.962743 C1177.5557,182.636561 1181.52612,170.832055 1185.85776,160.721003 C1186.93617,158.554232 1188.5538,157.2 1189.90182,157.2 C1195.0243,157.2 1203.92125,162.075235 1207.1565,165.054545 C1210.12215,167.221317 1206.88689,170.74232 1206.07808,173.450784 C1197.98995,194.576803 1190.98024,221.661442 1186.93617,241.433229 C1185.58815,247.662696 1187.47538,251.183699 1190.71063,251.183699 C1202.30362,251.183699 1219.01909,203.514734 1225.48959,184.555486 C1225.7592,183.201254 1226.29841,181.847022 1226.56801,180.49279 C1228.45524,173.72163 1230.61208,167.221317 1233.57772,160.721003 C1234.38654,158.554232 1236.00416,157.2 1237.35219,157.2 C1242.74427,157.2 1251.37161,162.075235 1254.87647,165.054545 C1256.49409,166.408777 1255.95489,168.575549 1254.87647,170.471473 C1253.79805,172.638245 1252.98924,174.805016 1252.18042,177.242633 C1246.51873,196.201881 1241.39625,216.244514 1237.62179,233.036991 L1237.08258,235.474608 C1251.37161,222.203135 1264.31262,205.681505 1272.93996,183.742947 C1274.55758,179.138558 1281.5673,181.847022 1279.68007,186.180564 C1269.4351,213.53605 1251.91082,233.036991 1234.11693,247.933542 C1230.07287,265.538558 1225.48959,283.143574 1219.28869,299.93605 C1213.08779,317.811912 1204.19085,330 1182.89211,330 C1176.4216,330 1169.6815,327.02069 1165.63743,321.332915 C1157.8189,310.49906 1162.40218,295.060815 1170.49031,285.581191 C1180.46567,274.205643 1195.83312,266.89279 1207.4261,258.767398 C1209.31333,250.912853 1210.93096,243.058307 1212.81819,234.932915 C1204.99966,251.454545 1195.0243,265.267712 1182.89211,265.267712 C1172.64714,265.267712 1162.94139,254.704702 1163.7502,246.850157 C1164.28941,243.329154 1164.82862,240.078997 1165.09822,236.557994 C1166.14523,229.966529 1167.42716,223.139056 1168.91127,216.268282 Z M957.140507,197.504703 C971.130026,228.645864 989.424013,255.725134 1006.91091,275.222209 C1008.25606,276.576172 1009.6012,277.38855 1011.21538,278.471721 C1011.75344,278.742514 1012.02247,279.013307 1012.02247,279.554892 C1013.09858,283.616783 997.763918,294.448491 992.921392,295.531662 C991.038188,296.073247 987.809837,293.36532 984.043428,288.491051 C960.637887,258.974647 943.958076,224.583973 931.582732,189.922507 C922.973797,215.106229 915.44098,241.102328 910.867483,262.224159 C910.329425,264.661293 908.715249,265.744464 905.755928,265.744464 C899.299227,265.744464 888,259.787025 888,253.829585 C888,208.065618 915.17195,91.0831708 926.471177,91.0831708 C931.851761,91.0831708 949.876719,98.1237811 949.876719,102.185672 C949.876719,102.727257 949.607689,103.268842 949.33866,103.539635 C947.993514,105.164391 946.917397,106.247562 946.11031,108.143111 C935.8872,126.286222 923.780885,172.320982 916.248067,210.773546 C923.511856,187.21458 931.851761,163.655615 941.536813,140.909028 C948.531573,124.390673 957.409537,109.767867 965.749442,100.290123 C971.937114,93.5203051 979.738961,90 987.271779,90 C1035.15898,90 1009.87023,197.775496 959.292741,197.775496 C958.485653,197.775496 957.947595,197.775496 957.140507,197.504703 Z M935.2,179.820875 C940.027866,179.012795 945.928591,179.820875 952.09753,184.4 C983.210443,184.4 999.303329,104.4 978.919007,104.4 C970.872564,104.4 959.875758,119.214815 949.147168,143.99596 C944.051087,155.847811 939.491436,167.969024 935.2,179.820875 Z M1030.4988,246.8 C1031.31474,246.529558 1032.13068,246.259117 1033.21859,246.259117 C1039.20212,245.718234 1043.00983,244.636467 1048.99336,242.743376 C1058.78459,228.680414 1066.4,202.447581 1066.4,185.13932 C1066.4,167.290176 1056.60876,166.20841 1046.81753,176.755631 C1031.31474,193.793451 1023.69934,232.196155 1030.4988,246.8 Z M1127.2,238 C1121.57859,239.3605 1112.47726,238.5442 1106.32048,240.1768 C1094.54229,243.1699 1098.2899,260.040102 1110.87115,255.686501 C1118.36636,252.965501 1125.05851,245.346701 1127.2,238 Z M1180.36554,317.2 C1184.93129,317.2 1190.30276,312.85977 1193.79421,303.094253 C1197.01709,293.6 1200.50855,282.206897 1204,270 C1191.9142,278.409195 1170.96547,289.802299 1172.03976,307.163218 C1172.30834,311.774713 1175.26264,317.2 1180.36554,317.2 Z" id="rosy-text" fill="url(#linearGradient-10)"></path>
    </g>
</svg>